<svg width="172" height="142" viewBox="0 0 172 142" fill="none" xmlns="http://www.w3.org/2000/svg">
<path d="M12.6187 114.598C12.5732 113.245 11.88 111.845 9.51472 111.845C7.48265 111.845 6.51214 113.151 6.51214 114.412C6.55766 116.045 8.40557 116.921 10.808 117.632C14.8722 118.75 19.2591 119.963 19.3047 125.47C19.3978 130.742 15.0108 134.102 9.69889 134.102C5.76719 134.102 0.461458 132.049 0 125.844H6.05068C6.28245 128.595 8.63732 129.155 9.792 129.155C11.6854 129.155 13.3099 127.901 13.2561 126.17C13.2561 123.977 11.3626 123.371 6.69631 121.738C3.27987 120.663 0.509048 118.75 0.461454 115.064C0.461454 110.026 4.66424 106.898 9.56645 106.898C12.985 106.898 18.0651 108.439 18.5721 114.598H12.6187Z" fill="white"/>
<path d="M47.9107 117.407C47.5481 115.58 46.8482 113.837 45.8471 112.269C45.6944 112.036 45.5396 111.794 45.3642 111.574C45.1839 111.777 45.0157 111.99 44.8607 112.213C43.145 114.568 42.216 117.409 42.207 120.328V120.426C42.2104 121.417 42.0356 122.401 41.6911 123.33C41.6353 123.485 41.5693 123.639 41.5033 123.782C40.9027 125.134 39.9207 126.278 38.679 127.074C37.4372 127.87 35.9905 128.282 34.5181 128.259C33.5003 128.268 32.4909 128.073 31.5493 127.684C30.6077 127.295 29.7529 126.721 29.0351 125.996C28.3174 125.27 27.7512 124.408 27.3699 123.459C26.9886 122.51 26.7999 121.494 26.8148 120.471C26.7882 118.389 27.5664 116.377 28.9856 114.86C29.6936 114.121 30.5442 113.536 31.4853 113.139C32.4263 112.743 33.438 112.544 34.4582 112.555C38.0241 112.555 40.3807 114.584 41.4744 117.042C41.9221 115.062 42.7738 113.196 43.9754 111.563C44.1441 111.307 44.331 111.064 44.5347 110.835C44.5677 110.802 44.6007 110.759 44.644 110.713C42.6259 108.443 39.6646 106.898 35.6613 106.898C31.4599 106.898 28.5213 108.85 26.7219 111.397V107.692H21.0615V142H27.0954V129.727C28.1148 131.35 30.7789 133.895 35.715 133.895C39.3675 133.895 42.4505 132.428 44.6317 130.07C44.708 130.003 44.7637 129.937 44.838 129.862C45.0237 129.655 45.1991 129.447 45.3745 129.223C45.6066 128.934 45.8229 128.632 46.0225 128.319C46.1979 128.055 46.363 127.78 46.5157 127.504L46.5487 127.437C46.6281 127.315 46.6972 127.186 46.7551 127.051C46.819 126.941 46.8748 126.819 46.9305 126.699C47.0275 126.491 47.1368 126.284 47.2029 126.06C47.2993 125.851 47.3841 125.637 47.4567 125.419C47.6685 124.795 47.8408 124.158 47.9726 123.512C48.0035 123.346 48.0365 123.17 48.0592 123.006C48.1948 122.212 48.2638 121.408 48.2656 120.602V120.37C48.2425 119.373 48.1237 118.381 47.9107 117.407Z" fill="white"/>
<path d="M46.8076 120.071L45.6062 120.823C45.6062 121.636 43.0855 122.008 42.9597 122.787C42.94 122.953 43.2133 123.674 43.1838 123.839C43.058 124.488 45.2051 123.738 45.0065 124.354C44.9337 124.573 45.7006 124.286 45.5964 124.495C45.4921 124.703 46.4025 124.753 46.3081 124.962C46.255 125.082 45.7045 125.809 45.6416 125.919C45.5787 126.029 45.1815 125.681 45.1068 125.803C45.1068 125.824 44.9632 126.132 44.9514 126.153C44.8059 126.427 45.2306 127.221 45.0635 127.486C44.8669 127.794 45.152 128.586 44.9318 128.871C44.7646 129.09 44.5975 129.299 44.4206 129.508C44.3576 129.574 44.3046 129.64 44.2239 129.714L44.1099 129.561C43.931 129.33 43.7442 129.088 43.5869 128.846C42.4684 127.228 41.6719 125.39 41.2451 123.44C41.308 123.298 41.371 123.145 41.424 122.99C41.7523 122.064 41.9189 121.084 41.9156 120.096L43.9329 119.992C43.9329 119.025 44.1158 119.354 44.3144 118.397C44.6899 116.563 44.57 115.889 45.6671 114.328C45.8126 114.109 44.747 111.494 44.9239 111.286C45.091 111.505 45.2385 111.747 45.384 111.978C46.3379 113.541 47.0048 115.278 47.3502 117.098C47.5645 118.093 46.7958 119.104 46.8076 120.071Z" fill="url(#paint0_radial_255_5732)"/>
<path d="M55.7179 106.898C51.5861 106.898 48.3354 108.424 46.0652 110.731C45.9869 110.8 45.9135 110.874 45.8455 110.953C45.6511 111.153 45.467 111.363 45.294 111.582C45.1128 111.787 44.9439 112.003 44.7882 112.228C43.0645 114.609 42.1311 117.48 42.1221 120.431V120.527C42.123 121.532 42.2335 122.535 42.4517 123.515C42.8649 125.407 43.6603 127.192 44.7882 128.757C44.9416 128.982 45.1178 129.204 45.294 129.426C47.135 127.076 48.1819 124.01 48.1819 120.712V120.477C48.1721 119.473 48.3515 118.477 48.7106 117.541C48.7645 117.386 48.8308 117.229 48.8972 117.084C49.4772 115.747 50.4329 114.612 51.6455 113.819C52.8581 113.027 54.2742 112.612 55.7179 112.626C59.8829 112.626 63.2228 115.948 63.2228 120.483C63.2228 125.019 59.8829 128.353 55.7179 128.353C54.2958 128.364 52.9005 127.962 51.6987 127.193C50.4969 126.424 49.5394 125.321 48.9407 124.016C48.815 124.671 48.6425 125.316 48.4245 125.945C48.3354 126.189 48.2483 126.423 48.1488 126.658C48.0493 126.893 47.9415 127.126 47.8399 127.348C47.7906 127.479 47.7317 127.606 47.6637 127.728C47.5863 127.897 47.4976 128.061 47.3983 128.218C47.2386 128.535 47.0586 128.84 46.8593 129.133C46.6438 129.477 46.4084 129.808 46.1544 130.124L46.0549 130.256C48.325 132.563 51.5861 134.102 55.7179 134.102C64.5558 134.102 69.3262 127.126 69.3262 120.473C69.3262 113.876 64.5558 106.898 55.7179 106.898Z" fill="white"/>
<path d="M94.7759 133.311H89.039V129.914C87.9668 131.915 85.6804 134.147 81.0637 134.101C72.6683 134.055 71.082 127.682 71.082 123.216V107.775H77.191V121.682C77.191 125.45 78.4449 128.426 82.79 128.38C87.1789 128.38 88.667 125.496 88.667 121.868V107.775H94.7759V133.311Z" fill="white"/>
<path d="M108.262 114.598C108.216 113.245 107.523 111.845 105.168 111.845C103.136 111.845 102.165 113.151 102.165 114.412C102.211 116.045 104.059 116.921 106.461 117.632C110.526 118.75 114.912 119.963 114.958 125.47C115.051 130.742 110.664 134.102 105.352 134.102C101.421 134.102 96.1148 132.049 95.6533 125.844H101.704C101.936 128.595 104.291 129.155 105.445 129.155C107.339 129.155 108.963 127.901 108.909 126.17C108.909 123.977 107.016 123.371 102.35 121.738C98.9332 120.663 96.1624 118.75 96.1148 115.064C96.1148 110.026 100.318 106.898 105.22 106.898C108.638 106.898 113.718 108.439 114.225 114.598H108.262Z" fill="white"/>
<path d="M121.857 122.53C122.131 126.636 125.691 128.923 129.117 128.875C132.041 128.875 134.003 127.522 135.145 125.423H141.31C140.123 128.269 138.343 130.416 136.242 131.862C134.137 133.344 131.636 134.125 129.08 134.101C121.362 134.101 115.837 127.708 115.837 120.571C115.837 113.291 121.407 106.898 128.988 106.898C132.732 106.898 136.021 108.345 138.351 110.818C141.41 114.038 142.552 118.049 142.049 122.526L121.857 122.53ZM136.15 117.863C135.923 115.438 133.41 112.03 129.027 112.079C124.597 112.079 122.176 115.344 121.947 117.863H136.15Z" fill="white"/>
<path d="M171.12 133.314H165.368V129.648C164.262 131.55 161.862 134.102 156.705 134.102C148.926 134.102 143.918 127.979 143.918 120.558C143.918 112.301 149.765 107.049 156.623 107.049C161.457 107.049 164.172 109.647 165.093 111.131V99H171.122L171.12 133.314ZM149.947 120.558C149.947 124.872 153.03 128.397 157.679 128.397C158.721 128.403 159.753 128.202 160.717 127.804C161.681 127.405 162.557 126.819 163.295 126.078C164.701 124.565 165.476 122.565 165.459 120.493C165.442 118.42 164.635 116.434 163.204 114.945C162.482 114.227 161.626 113.661 160.686 113.279C159.746 112.897 158.74 112.706 157.726 112.717C152.801 112.717 149.947 116.52 149.947 120.51V120.558Z" fill="white"/>
<path d="M77.7119 29.0687L102.948 3.83697C95.2337 0.268757 86.6101 -0.84662 78.2417 0.641505C69.8734 2.12963 62.1633 6.14956 56.1527 12.1584C50.7903 17.5208 47.0001 24.25 45.194 31.6147C43.3878 38.9795 43.6348 46.6984 45.9079 53.9327H93.2881L68.0521 79.1644C75.7665 82.7317 84.3898 83.8465 92.758 82.3584C101.126 80.8703 108.836 76.851 114.847 70.843C120.21 65.4805 124 58.7514 125.806 51.3866C127.612 44.0218 127.365 36.303 125.092 29.0687H77.7119Z" fill="white"/>
<mask id="mask0_255_5732" style="mask-type:luminance" maskUnits="userSpaceOnUse" x="44" y="0" width="83" height="83">
<path d="M77.7119 29.0687L102.948 3.83697C95.2337 0.268757 86.6101 -0.84662 78.2417 0.641505C69.8734 2.12963 62.1633 6.14956 56.1527 12.1584C50.7903 17.5208 47.0001 24.25 45.194 31.6147C43.3878 38.9795 43.6348 46.6984 45.9079 53.9327H93.2881L68.0521 79.1644C75.7665 82.7317 84.3898 83.8465 92.758 82.3584C101.126 80.8703 108.836 76.851 114.847 70.843C120.21 65.4805 124 58.7514 125.806 51.3866C127.612 44.0218 127.365 36.303 125.092 29.0687H77.7119Z" fill="white"/>
</mask>
<g mask="url(#mask0_255_5732)">
<path d="M45.4104 54C45.4104 54 48.2632 0.783557 104.236 14.344L117 1.75264L95.6442 -6H37V54H45.4104Z" fill="url(#paint1_linear_255_5732)"/>
<path d="M125.566 30C125.566 30 122.711 83.2165 66.7588 69.656L54 82.2474L75.3477 90H134V30H125.566Z" fill="url(#paint2_linear_255_5732)"/>
</g>
<defs>
<radialGradient id="paint0_radial_255_5732" cx="0" cy="0" r="1" gradientUnits="userSpaceOnUse" gradientTransform="translate(48.2861 121.975) scale(11.0207 11.5863)">
<stop stop-color="#341347"/>
<stop offset="0.04" stop-color="#341347" stop-opacity="0.91"/>
<stop offset="0.25" stop-color="#341347" stop-opacity="0.51"/>
<stop offset="0.46" stop-color="#341347" stop-opacity="0.23"/>
<stop offset="0.67" stop-color="#341347" stop-opacity="0.06"/>
<stop offset="0.88" stop-color="#341347" stop-opacity="0"/>
</radialGradient>
<linearGradient id="paint1_linear_255_5732" x1="76.9966" y1="55.7556" x2="76.9966" y2="-4.24105" gradientUnits="userSpaceOnUse">
<stop stop-color="#341347" stop-opacity="0.4"/>
<stop offset="0.23" stop-color="#341347" stop-opacity="0.2"/>
<stop offset="0.54" stop-color="#341347" stop-opacity="0.05"/>
<stop offset="0.88" stop-color="#341347" stop-opacity="0"/>
</linearGradient>
<linearGradient id="paint2_linear_255_5732" x1="93.9983" y1="28.2444" x2="93.9983" y2="88.2444" gradientUnits="userSpaceOnUse">
<stop stop-color="#341347" stop-opacity="0.4"/>
<stop offset="0.24" stop-color="#341347" stop-opacity="0.18"/>
<stop offset="0.52" stop-color="#341347" stop-opacity="0.04"/>
<stop offset="0.88" stop-color="#341347" stop-opacity="0"/>
</linearGradient>
</defs>
</svg>
