<svg width="243" height="59" viewBox="0 0 243 59" fill="none" xmlns="http://www.w3.org/2000/svg">
<path d="M83.6187 23.598C83.5732 22.2453 82.88 20.8445 80.5147 20.8445C78.4827 20.8445 77.5121 22.1512 77.5121 23.4119C77.5577 25.0447 79.4056 25.9207 81.808 26.6316C85.8722 27.7501 90.2591 28.9627 90.3047 34.4696C90.3978 39.7423 86.0108 43.102 80.6989 43.102C76.7672 43.102 71.4615 41.049 71 34.8438H77.0507C77.2824 37.5951 79.6373 38.1554 80.792 38.1554C82.6854 38.1554 84.3099 36.901 84.2561 35.1699C84.2561 32.9768 82.3626 32.3705 77.6963 30.7377C74.2799 29.6631 71.509 27.7501 71.4615 24.0642C71.4615 19.0256 75.6642 15.8979 80.5665 15.8979C83.985 15.8979 89.0651 17.4388 89.5721 23.598H83.6187Z" fill="white"/>
<path d="M118.911 26.4072C118.548 24.5798 117.848 22.8369 116.847 21.2687C116.694 21.0364 116.54 20.7937 116.364 20.5738C116.184 20.7765 116.016 20.9899 115.861 21.2127C114.145 23.5678 113.216 26.409 113.207 29.3281V29.4255C113.21 30.417 113.036 31.4008 112.691 32.3298C112.635 32.4854 112.569 32.6389 112.503 32.782C111.903 34.1337 110.921 35.2784 109.679 36.0742C108.437 36.87 106.99 37.2818 105.518 37.2587C104.5 37.268 103.491 37.0725 102.549 36.6839C101.608 36.2952 100.753 35.7213 100.035 34.9957C99.3174 34.2701 98.7512 33.4076 98.3699 32.4589C97.9886 31.5101 97.7999 30.4943 97.8148 29.4712C97.7882 27.3887 98.5664 25.377 99.9856 23.8597C100.694 23.1212 101.544 22.5358 102.485 22.1395C103.426 21.7431 104.438 21.5443 105.458 21.555C109.024 21.555 111.381 23.5838 112.474 26.0421C112.922 24.0616 113.774 22.1961 114.975 20.5634C115.144 20.3075 115.331 20.0641 115.535 19.8353C115.568 19.8021 115.601 19.7585 115.644 19.7129C113.626 17.4434 110.665 15.8979 106.661 15.8979C102.46 15.8979 99.5213 17.85 97.7219 20.3975V16.6925H92.0615V51H98.0954V38.7274C99.1148 40.3497 101.779 42.8951 106.715 42.8951C110.367 42.8951 113.45 41.4284 115.632 39.0697C115.708 39.0034 115.764 38.937 115.838 38.8623C116.024 38.6548 116.199 38.4474 116.375 38.2234C116.607 37.9339 116.823 37.6319 117.023 37.3189C117.198 37.0554 117.363 36.7795 117.516 36.5036L117.549 36.4373C117.628 36.3147 117.697 36.1856 117.755 36.0514C117.819 35.9414 117.875 35.819 117.93 35.6987C118.027 35.4913 118.137 35.2838 118.203 35.0598C118.299 34.8511 118.384 34.6371 118.457 34.4188C118.668 33.7949 118.841 33.1581 118.973 32.5124C119.004 32.3464 119.037 32.1701 119.059 32.0062C119.195 31.212 119.264 30.4077 119.266 29.6019V29.3695C119.243 28.3729 119.124 27.3808 118.911 26.4072Z" fill="white"/>
<path d="M117.808 29.071L116.606 29.8234C116.606 30.6358 114.086 31.0079 113.96 31.7872C113.94 31.9526 114.213 32.674 114.184 32.8394C114.058 33.4885 116.205 32.7381 116.006 33.3541C115.934 33.5732 116.701 33.2859 116.596 33.4947C116.492 33.7035 117.403 33.7531 117.308 33.9619C117.255 34.0818 116.705 34.8094 116.642 34.9189C116.579 35.0285 116.181 34.6812 116.107 34.8032C116.107 34.8238 115.963 35.1319 115.951 35.1525C115.806 35.4275 116.231 36.2212 116.064 36.4858C115.867 36.7938 116.152 37.5856 115.932 37.8708C115.765 38.0899 115.598 38.2987 115.421 38.5075C115.358 38.5737 115.305 38.6398 115.224 38.7142L115.11 38.5613C114.931 38.3297 114.744 38.0879 114.587 37.846C113.468 36.2281 112.672 34.3896 112.245 32.4404C112.308 32.2978 112.371 32.1448 112.424 31.9898C112.752 31.0641 112.919 30.0837 112.916 29.0958L114.933 28.9924C114.933 28.025 115.116 28.3537 115.314 27.3966C115.69 25.5631 115.57 24.8892 116.667 23.3285C116.813 23.1094 115.747 20.4944 115.924 20.2856C116.091 20.5048 116.239 20.7466 116.384 20.9781C117.338 22.5408 118.005 24.2775 118.35 26.0984C118.565 27.0927 117.796 28.1036 117.808 29.071Z" fill="url(#paint0_radial_255_5733)"/>
<path d="M126.718 15.8979C122.586 15.8979 119.335 17.4244 117.065 19.7309C116.987 19.7997 116.913 19.874 116.845 19.9532C116.651 20.1531 116.467 20.3631 116.294 20.5822C116.113 20.7871 115.944 21.0028 115.788 21.2281C114.065 23.6085 113.131 26.4802 113.122 29.4308V29.5273C113.123 30.5325 113.234 31.5345 113.452 32.5152C113.865 34.4068 114.66 36.1915 115.788 37.7573C115.942 37.9816 116.118 38.2039 116.294 38.4261C118.135 36.0756 119.182 33.0101 119.182 29.7118V29.4769C119.172 28.4733 119.351 27.477 119.711 26.5414C119.765 26.3862 119.831 26.229 119.897 26.0843C120.477 24.7471 121.433 23.6117 122.646 22.8192C123.858 22.0266 125.274 21.6119 126.718 21.6265C130.883 21.6265 134.223 24.9478 134.223 29.4832C134.223 34.0186 130.883 37.3526 126.718 37.3526C125.296 37.3642 123.901 36.9615 122.699 36.1926C121.497 35.4237 120.539 34.321 119.941 33.0164C119.815 33.6712 119.642 34.3159 119.425 34.9454C119.335 35.1887 119.248 35.4235 119.149 35.6583C119.049 35.8932 118.941 36.1259 118.84 36.3482C118.791 36.479 118.732 36.6058 118.664 36.7277C118.586 36.8971 118.498 37.0611 118.398 37.2184C118.239 37.5348 118.059 37.8401 117.859 38.1326C117.644 38.4769 117.408 38.8081 117.154 39.1244L117.055 39.2565C119.325 41.563 122.586 43.102 126.718 43.102C135.556 43.102 140.326 36.1259 140.326 29.4727C140.326 22.8761 135.556 15.8979 126.718 15.8979Z" fill="white"/>
<path d="M165.776 42.3114H160.039V38.9144C158.967 40.9151 156.68 43.1471 152.064 43.1012C143.668 43.0554 142.082 36.6823 142.082 32.2162V16.7754H148.191V30.6823C148.191 34.4503 149.445 37.4263 153.79 37.3805C158.179 37.3805 159.667 34.4961 159.667 30.8678V16.7754H165.776V42.3114Z" fill="white"/>
<path d="M179.262 23.598C179.216 22.2453 178.523 20.8445 176.168 20.8445C174.136 20.8445 173.165 22.1512 173.165 23.4119C173.211 25.0447 175.059 25.9207 177.461 26.6316C181.526 27.7501 185.912 28.9627 185.958 34.4696C186.051 39.7423 181.664 43.102 176.352 43.102C172.421 43.102 167.115 41.049 166.653 34.8438H172.704C172.936 37.5951 175.291 38.1554 176.445 38.1554C178.339 38.1554 179.963 36.901 179.909 35.1699C179.909 32.9768 178.016 32.3705 173.35 30.7377C169.933 29.6631 167.162 27.7501 167.115 24.0642C167.115 19.0256 171.318 15.8979 176.22 15.8979C179.638 15.8979 184.718 17.4388 185.225 23.598H179.262Z" fill="white"/>
<path d="M192.857 31.5297C193.131 35.6358 196.691 37.923 200.117 37.8749C203.041 37.8749 205.003 36.5222 206.145 34.4232H212.31C211.123 37.2686 209.343 39.4157 207.242 40.8624C205.137 42.3435 202.636 43.1254 200.08 43.1015C192.362 43.1015 186.837 36.7083 186.837 29.5708C186.837 22.2912 192.407 15.8979 199.988 15.8979C203.732 15.8979 207.021 17.3447 209.351 19.8179C212.41 23.0375 213.552 27.0495 213.049 31.5256L192.857 31.5297ZM207.15 26.8634C206.923 24.4382 204.41 21.0305 200.027 21.0786C195.597 21.0786 193.176 24.3442 192.947 26.8634H207.15Z" fill="white"/>
<path d="M242.12 42.3144H236.368V38.6483C235.262 40.5499 232.862 43.102 227.705 43.102C219.926 43.102 214.918 36.9794 214.918 29.5579C214.918 21.3009 220.765 16.0491 227.623 16.0491C232.457 16.0491 235.172 18.647 236.093 20.1309V8H242.122L242.12 42.3144ZM220.947 29.5579C220.947 33.8724 224.03 37.3972 228.679 37.3972C229.721 37.4034 230.753 37.2016 231.717 36.8035C232.681 36.4054 233.557 35.8189 234.295 35.0778C235.701 33.5652 236.476 31.5655 236.459 29.4929C236.442 27.4203 235.635 25.4336 234.204 23.9445C233.482 23.2275 232.626 22.6615 231.686 22.2791C230.746 21.8968 229.74 21.7056 228.726 21.7166C223.801 21.7166 220.947 25.5198 220.947 29.5101V29.5579Z" fill="white"/>
<path d="M23.9639 20.6633L41.9027 2.72749C36.4192 0.191044 30.2891 -0.601814 24.3405 0.456009C18.3919 1.51383 12.9112 4.37137 8.63868 8.64272C4.82685 12.4546 2.13264 17.2379 0.848743 22.4731C-0.435151 27.7083 -0.259631 33.1952 1.35623 38.3377H35.0361L17.0973 56.2735C22.581 58.8092 28.7108 59.6017 34.6593 58.5439C40.6078 57.4861 46.0884 54.629 50.3613 50.3582C54.1732 46.5464 56.8674 41.763 58.1513 36.5278C59.4352 31.2926 59.2596 25.8057 57.6438 20.6633H23.9639Z" fill="white"/>
<mask id="mask0_255_5733" style="mask-type:luminance" maskUnits="userSpaceOnUse" x="0" y="0" width="59" height="59">
<path d="M23.9639 20.6633L41.9027 2.72749C36.4192 0.191044 30.2891 -0.601814 24.3405 0.456009C18.3919 1.51383 12.9112 4.37137 8.63868 8.64272C4.82685 12.4546 2.13264 17.2379 0.848743 22.4731C-0.435151 27.7083 -0.259631 33.1952 1.35623 38.3377H35.0361L17.0973 56.2735C22.581 58.8092 28.7108 59.6017 34.6593 58.5439C40.6078 57.4861 46.0884 54.629 50.3613 50.3582C54.1732 46.5464 56.8674 41.763 58.1513 36.5278C59.4352 31.2926 59.2596 25.8057 57.6438 20.6633H23.9639Z" fill="white"/>
</mask>
<g mask="url(#mask0_255_5733)">
<path d="M1.00194 38.3855C1.00194 38.3855 3.02984 0.55691 42.8179 10.1963L51.8909 1.24577L36.7103 -4.26514H-4.97656V38.3855H1.00194Z" fill="url(#paint1_linear_255_5733)"/>
<path d="M57.9795 21.3252C57.9795 21.3252 55.95 59.1538 16.177 49.5144L7.10742 58.4649L22.2823 63.9758H63.9749V21.3252H57.9795Z" fill="url(#paint2_linear_255_5733)"/>
</g>
<defs>
<radialGradient id="paint0_radial_255_5733" cx="0" cy="0" r="1" gradientUnits="userSpaceOnUse" gradientTransform="translate(119.286 30.9748) scale(11.0207 11.5863)">
<stop stop-color="#341347"/>
<stop offset="0.04" stop-color="#341347" stop-opacity="0.91"/>
<stop offset="0.25" stop-color="#341347" stop-opacity="0.51"/>
<stop offset="0.46" stop-color="#341347" stop-opacity="0.23"/>
<stop offset="0.67" stop-color="#341347" stop-opacity="0.06"/>
<stop offset="0.88" stop-color="#341347" stop-opacity="0"/>
</radialGradient>
<linearGradient id="paint1_linear_255_5733" x1="23.4548" y1="39.6334" x2="23.4548" y2="-3.0148" gradientUnits="userSpaceOnUse">
<stop stop-color="#341347" stop-opacity="0.4"/>
<stop offset="0.23" stop-color="#341347" stop-opacity="0.2"/>
<stop offset="0.54" stop-color="#341347" stop-opacity="0.05"/>
<stop offset="0.88" stop-color="#341347" stop-opacity="0"/>
</linearGradient>
<linearGradient id="paint2_linear_255_5733" x1="35.54" y1="20.0772" x2="35.54" y2="62.7278" gradientUnits="userSpaceOnUse">
<stop stop-color="#341347" stop-opacity="0.4"/>
<stop offset="0.24" stop-color="#341347" stop-opacity="0.18"/>
<stop offset="0.52" stop-color="#341347" stop-opacity="0.04"/>
<stop offset="0.88" stop-color="#341347" stop-opacity="0"/>
</linearGradient>
</defs>
</svg>
