<svg width="16" height="17" viewBox="0 0 16 17" fill="none" xmlns="http://www.w3.org/2000/svg">
<path d="M8 16C12.1421 16 15.5 12.6421 15.5 8.5C15.5 4.35786 12.1421 1 8 1C3.85786 1 0.5 4.35786 0.5 8.5C0.5 12.6421 3.85786 16 8 16Z" fill="#ED4C5C"/>
<path d="M5.5 7.6L7.5 9L6.75 6.7L8.75 5.25H6.275L5.5 3L4.75 5.25H2.25L4.25 6.7L3.5 9L5.5 7.6ZM8.825 9.325L8.25 9.45L8.8 9.675V10.25L9.175 9.825L9.725 10.025L9.4 9.55L9.75 9.1L9.175 9.225L8.825 8.75V9.325ZM9.675 7.625L9.25 8L9.825 7.95L10.075 8.5L10.175 7.925L10.75 7.875L10.25 7.575L10.375 7L9.95 7.375L9.45 7.075L9.675 7.625ZM9.825 5.675L10 6.25L10.175 5.7H10.75L10.3 5.35L10.475 4.775L10 5.125L9.55 4.75L9.725 5.325L9.25 5.65L9.825 5.675ZM8.825 3.675V4.25L9.175 3.775L9.75 3.9L9.4 3.45L9.725 2.975L9.175 3.2L8.8 2.75V3.325L8.25 3.55L8.825 3.675Z" fill="#FFE62E"/>
</svg>
