<svg width="16" height="17" viewBox="0 0 16 17" fill="none" xmlns="http://www.w3.org/2000/svg">
<path d="M0.5 8.4998C0.5 11.7748 2.6 14.5498 5.5 15.5748V1.4248C2.6 2.4498 0.5 5.2248 0.5 8.4998Z" fill="black"/>
<path d="M15.5 8.4998C15.5 5.2248 13.425 2.4498 10.5 1.4248V15.5748C13.425 14.5498 15.5 11.7748 15.5 8.4998Z" fill="#FFCE00"/>
<path d="M5.5 15.575C6.275 15.85 7.125 16 8 16C8.875 16 9.725 15.85 10.5 15.575V1.425C9.725 1.15 8.875 1 8 1C7.125 1 6.275 1.15 5.5 1.425V15.575Z" fill="#DD0000"/>
</svg>
