<svg width="16" height="17" viewBox="0 0 16 17" fill="none" xmlns="http://www.w3.org/2000/svg">
<path d="M4.25 15V2C2 3.3 0.5 5.725 0.5 8.5C0.5 11.275 2 13.7 4.25 15Z" fill="#699635"/>
<path d="M8 1C6.625 1 5.35 1.375 4.25 2V15C5.35 15.65 6.625 16 8 16C12.15 16 15.5 12.65 15.5 8.5C15.5 4.35 12.15 1 8 1Z" fill="#ED4C5C"/>
<path d="M4.25 5.5C2.6 5.5 1.25 6.85 1.25 8.5C1.25 10.15 2.6 11.5 4.25 11.5C5.9 11.5 7.25 10.15 7.25 8.5C7.25 6.85 5.9 5.5 4.25 5.5ZM4.25 11.125C2.8 11.125 1.625 9.95 1.625 8.5C1.625 7.05 2.8 5.875 4.25 5.875C5.7 5.875 6.875 7.05 6.875 8.5C6.875 9.95 5.7 11.125 4.25 11.125Z" fill="#FFE62E"/>
<path d="M5.27471 11.4248C5.22471 11.4748 5.14971 11.4748 5.09971 11.4248L1.67471 6.8998C1.62471 6.8498 1.62471 6.7748 1.67471 6.7248L1.74971 6.6498C1.79971 6.5998 1.87471 6.5998 1.92471 6.6498L5.34971 11.1748C5.39971 11.2248 5.39971 11.2998 5.34971 11.3498L5.27471 11.4248Z" fill="#FFE62E"/>
<path d="M4.2998 5.375C4.3748 5.375 4.4248 5.425 4.4248 5.5V11.5C4.4248 11.575 4.3748 11.625 4.2998 11.625H4.1748C4.0998 11.625 4.0498 11.575 4.0498 11.5V5.5C4.0498 5.425 4.0998 5.375 4.1748 5.375H4.2998Z" fill="#FFE62E"/>
<path d="M7.22481 8.82491L4.24981 8.29991V8.67491L7.17481 9.19991C7.24981 9.19991 7.29981 9.17491 7.32481 9.09991L7.34981 8.97491C7.34981 8.92491 7.29981 8.84991 7.22481 8.82491ZM4.24981 8.27491L1.89981 6.62491C1.84981 6.57491 1.77481 6.59991 1.72481 6.64991L1.64981 6.74991C1.59981 6.79991 1.62481 6.87491 1.67481 6.92491L4.24981 8.72491V8.27491Z" fill="#FFE62E"/>
<path d="M4.14991 8L1.79991 10.35C1.74991 10.4 1.74991 10.475 1.79991 10.525L1.89991 10.625C1.94991 10.675 2.02491 10.675 2.07491 10.625L4.14991 8.55V8ZM4.24991 6.875L1.12491 8.35C1.07491 8.375 1.02491 8.45 1.07491 8.525L1.12491 8.65C1.14991 8.7 1.22491 8.75 1.29991 8.7L4.24991 7.3V6.875Z" fill="#FFE62E"/>
<path d="M7.02481 7.2999L4.0498 6.7749V7.1499L6.9748 7.6749C7.0498 7.6749 7.0998 7.6499 7.1248 7.5749L7.14981 7.4499C7.1248 7.3749 7.07481 7.2999 7.02481 7.2999ZM4.2248 10.2249C4.1748 10.2499 4.1248 10.3249 4.1748 10.3999L4.2248 10.5249C4.2498 10.5749 4.3248 10.6249 4.3998 10.5749L6.89981 9.4249L7.02481 8.9499L4.2248 10.2249ZM4.2248 9.3749L1.4248 8.3499V8.7499L4.2248 9.7749V9.3749Z" fill="#FFE62E"/>
<path d="M2.2749 10.2002V10.5752L5.9749 10.8252C6.1249 10.7252 6.2499 10.6002 6.3749 10.4752L2.2749 10.2002Z" fill="#FFE62E"/>
<path d="M3 7.25V9C3 9.7 3.55 10.25 4.25 10.25C4.95 10.25 5.5 9.7 5.5 9V7.25H3Z" fill="white"/>
<path d="M4.25 10.75C3.275 10.75 2.5 9.975 2.5 9V6.75H6V9C6 9.975 5.225 10.75 4.25 10.75ZM3.5 7.75V9C3.5 9.425 3.825 9.75 4.25 9.75C4.675 9.75 5 9.425 5 9V7.75H3.5Z" fill="#ED4C5C"/>
<path d="M4.0249 7.8502V8.2502C4.0249 8.3252 4.0749 8.3752 4.1499 8.3752H4.3499C4.4249 8.3752 4.4749 8.3252 4.4749 8.2502V7.8252H4.0249V7.8502ZM4.0249 8.4752V8.9002C4.0249 8.9752 4.0749 9.0252 4.1499 9.0252H4.3499C4.4249 9.0252 4.4749 8.9752 4.4749 8.9002V8.4752H4.0249ZM3.5249 8.4752V8.9002C3.5249 8.9752 3.5749 9.0252 3.6499 9.0252H3.8499C3.9249 9.0252 3.9749 8.9752 3.9749 8.9002V8.4752H3.5249ZM4.5249 8.4752V8.9002C4.5249 8.9752 4.5749 9.0252 4.6499 9.0252H4.8499C4.9249 9.0252 4.9749 8.9752 4.9749 8.9002V8.4752H4.5249ZM4.0249 9.0752V9.5002C4.0249 9.5752 4.0749 9.6252 4.1499 9.6252H4.3499C4.4249 9.6252 4.4749 9.5752 4.4749 9.5002V9.0752H4.0249Z" fill="#0071BC"/>
<path d="M4.2502 8.7748C4.27781 8.7748 4.3002 8.75242 4.3002 8.7248C4.3002 8.69719 4.27781 8.6748 4.2502 8.6748C4.22258 8.6748 4.2002 8.69719 4.2002 8.7248C4.2002 8.75242 4.22258 8.7748 4.2502 8.7748Z" fill="white"/>
<path d="M4.1501 8.8998C4.17771 8.8998 4.2001 8.87742 4.2001 8.8498C4.2001 8.82219 4.17771 8.7998 4.1501 8.7998C4.12248 8.7998 4.1001 8.82219 4.1001 8.8498C4.1001 8.87742 4.12248 8.8998 4.1501 8.8998Z" fill="white"/>
<path d="M4.35029 8.8998C4.37791 8.8998 4.40029 8.87742 4.40029 8.8498C4.40029 8.82219 4.37791 8.7998 4.35029 8.7998C4.32268 8.7998 4.30029 8.82219 4.30029 8.8498C4.30029 8.87742 4.32268 8.8998 4.35029 8.8998Z" fill="white"/>
<path d="M4.1501 8.6498C4.17771 8.6498 4.2001 8.62742 4.2001 8.5998C4.2001 8.57219 4.17771 8.5498 4.1501 8.5498C4.12248 8.5498 4.1001 8.57219 4.1001 8.5998C4.1001 8.62742 4.12248 8.6498 4.1501 8.6498Z" fill="white"/>
<path d="M4.35029 8.6498C4.37791 8.6498 4.40029 8.62742 4.40029 8.5998C4.40029 8.57219 4.37791 8.5498 4.35029 8.5498C4.32268 8.5498 4.30029 8.57219 4.30029 8.5998C4.30029 8.62742 4.32268 8.6498 4.35029 8.6498Z" fill="white"/>
<path d="M4.2502 8.1498C4.27781 8.1498 4.3002 8.12742 4.3002 8.0998C4.3002 8.07219 4.27781 8.0498 4.2502 8.0498C4.22258 8.0498 4.2002 8.07219 4.2002 8.0998C4.2002 8.12742 4.22258 8.1498 4.2502 8.1498Z" fill="white"/>
<path d="M4.1501 8.2748C4.17771 8.2748 4.2001 8.25242 4.2001 8.2248C4.2001 8.19719 4.17771 8.1748 4.1501 8.1748C4.12248 8.1748 4.1001 8.19719 4.1001 8.2248C4.1001 8.25242 4.12248 8.2748 4.1501 8.2748Z" fill="white"/>
<path d="M4.35029 8.2748C4.37791 8.2748 4.40029 8.25242 4.40029 8.2248C4.40029 8.19719 4.37791 8.1748 4.35029 8.1748C4.32268 8.1748 4.30029 8.19719 4.30029 8.2248C4.30029 8.25242 4.32268 8.2748 4.35029 8.2748Z" fill="white"/>
<path d="M4.1501 8.0248C4.17771 8.0248 4.2001 8.00242 4.2001 7.9748C4.2001 7.94719 4.17771 7.9248 4.1501 7.9248C4.12248 7.9248 4.1001 7.94719 4.1001 7.9748C4.1001 8.00242 4.12248 8.0248 4.1501 8.0248Z" fill="white"/>
<path d="M4.35029 8.0248C4.37791 8.0248 4.40029 8.00242 4.40029 7.9748C4.40029 7.94719 4.37791 7.9248 4.35029 7.9248C4.32268 7.9248 4.30029 7.94719 4.30029 7.9748C4.30029 8.00242 4.32268 8.0248 4.35029 8.0248Z" fill="white"/>
<path d="M4.7502 8.7748C4.77781 8.7748 4.8002 8.75242 4.8002 8.7248C4.8002 8.69719 4.77781 8.6748 4.7502 8.6748C4.72258 8.6748 4.7002 8.69719 4.7002 8.7248C4.7002 8.75242 4.72258 8.7748 4.7502 8.7748Z" fill="white"/>
<path d="M4.6501 8.8998C4.67771 8.8998 4.7001 8.87742 4.7001 8.8498C4.7001 8.82219 4.67771 8.7998 4.6501 8.7998C4.62248 8.7998 4.6001 8.82219 4.6001 8.8498C4.6001 8.87742 4.62248 8.8998 4.6501 8.8998Z" fill="white"/>
<path d="M4.85029 8.8998C4.87791 8.8998 4.90029 8.87742 4.90029 8.8498C4.90029 8.82219 4.87791 8.7998 4.85029 8.7998C4.82268 8.7998 4.80029 8.82219 4.80029 8.8498C4.80029 8.87742 4.82268 8.8998 4.85029 8.8998Z" fill="white"/>
<path d="M4.6501 8.6498C4.67771 8.6498 4.7001 8.62742 4.7001 8.5998C4.7001 8.57219 4.67771 8.5498 4.6501 8.5498C4.62248 8.5498 4.6001 8.57219 4.6001 8.5998C4.6001 8.62742 4.62248 8.6498 4.6501 8.6498Z" fill="white"/>
<path d="M4.85029 8.6498C4.87791 8.6498 4.90029 8.62742 4.90029 8.5998C4.90029 8.57219 4.87791 8.5498 4.85029 8.5498C4.82268 8.5498 4.80029 8.57219 4.80029 8.5998C4.80029 8.62742 4.82268 8.6498 4.85029 8.6498Z" fill="white"/>
<path d="M3.7502 8.7748C3.77781 8.7748 3.8002 8.75242 3.8002 8.7248C3.8002 8.69719 3.77781 8.6748 3.7502 8.6748C3.72258 8.6748 3.7002 8.69719 3.7002 8.7248C3.7002 8.75242 3.72258 8.7748 3.7502 8.7748Z" fill="white"/>
<path d="M3.6501 8.8998C3.67771 8.8998 3.7001 8.87742 3.7001 8.8498C3.7001 8.82219 3.67771 8.7998 3.6501 8.7998C3.62248 8.7998 3.6001 8.82219 3.6001 8.8498C3.6001 8.87742 3.62248 8.8998 3.6501 8.8998Z" fill="white"/>
<path d="M3.85029 8.8998C3.87791 8.8998 3.90029 8.87742 3.90029 8.8498C3.90029 8.82219 3.87791 8.7998 3.85029 8.7998C3.82268 8.7998 3.80029 8.82219 3.80029 8.8498C3.80029 8.87742 3.82268 8.8998 3.85029 8.8998Z" fill="white"/>
<path d="M3.6501 8.6498C3.67771 8.6498 3.7001 8.62742 3.7001 8.5998C3.7001 8.57219 3.67771 8.5498 3.6501 8.5498C3.62248 8.5498 3.6001 8.57219 3.6001 8.5998C3.6001 8.62742 3.62248 8.6498 3.6501 8.6498Z" fill="white"/>
<path d="M3.85029 8.6498C3.87791 8.6498 3.90029 8.62742 3.90029 8.5998C3.90029 8.57219 3.87791 8.5498 3.85029 8.5498C3.82268 8.5498 3.80029 8.57219 3.80029 8.5998C3.80029 8.62742 3.82268 8.6498 3.85029 8.6498Z" fill="white"/>
<path d="M4.2502 9.3998C4.27781 9.3998 4.3002 9.37742 4.3002 9.3498C4.3002 9.32219 4.27781 9.2998 4.2502 9.2998C4.22258 9.2998 4.2002 9.32219 4.2002 9.3498C4.2002 9.37742 4.22258 9.3998 4.2502 9.3998Z" fill="white"/>
<path d="M4.1501 9.5248C4.17771 9.5248 4.2001 9.50242 4.2001 9.4748C4.2001 9.44719 4.17771 9.4248 4.1501 9.4248C4.12248 9.4248 4.1001 9.44719 4.1001 9.4748C4.1001 9.50242 4.12248 9.5248 4.1501 9.5248Z" fill="white"/>
<path d="M4.35029 9.5248C4.37791 9.5248 4.40029 9.50242 4.40029 9.4748C4.40029 9.44719 4.37791 9.4248 4.35029 9.4248C4.32268 9.4248 4.30029 9.44719 4.30029 9.4748C4.30029 9.50242 4.32268 9.5248 4.35029 9.5248Z" fill="white"/>
<path d="M4.1501 9.2748C4.17771 9.2748 4.2001 9.25242 4.2001 9.2248C4.2001 9.19719 4.17771 9.1748 4.1501 9.1748C4.12248 9.1748 4.1001 9.19719 4.1001 9.2248C4.1001 9.25242 4.12248 9.2748 4.1501 9.2748Z" fill="white"/>
<path d="M4.35029 9.2748C4.37791 9.2748 4.40029 9.25242 4.40029 9.2248C4.40029 9.19719 4.37791 9.1748 4.35029 9.1748C4.32268 9.1748 4.30029 9.19719 4.30029 9.2248C4.30029 9.25242 4.32268 9.2748 4.35029 9.2748Z" fill="white"/>
<path d="M4 7.5H4.5L4.45 7.25V7H4.5V6.875H4.425V6.95H4.4V6.875H4.325V6.95H4.275V6.875H4.225V6.95H4.175V6.875H4.1V6.95H4.05V6.875H4V7H4.05V7.25L4 7.5Z" fill="#FFE62E"/>
<path d="M4.3251 7.4999H4.3001V7.3999C4.3001 7.3749 4.2751 7.3499 4.2501 7.3499C4.2251 7.3499 4.2001 7.3749 4.2001 7.3999V7.4999H4.1751V7.3999C4.1751 7.3499 4.2001 7.3249 4.2501 7.3249C4.3001 7.3249 4.3251 7.3499 4.3251 7.3999V7.4999ZM4.2501 7.2249H4.1001V7.0999C4.1001 7.0499 4.1251 7.0249 4.1751 7.0249C4.2251 7.0249 4.2501 7.0499 4.2501 7.0999V7.2249ZM4.1251 7.1999H4.2251V7.0999C4.2251 7.0749 4.2001 7.0499 4.1751 7.0499C4.1501 7.0499 4.1251 7.0749 4.1251 7.0999V7.1999ZM4.4001 7.2249H4.2501V7.0999C4.2501 7.0499 4.2751 7.0249 4.3251 7.0249C4.3751 7.0249 4.4001 7.0499 4.4001 7.0999V7.2249ZM4.2751 7.1999H4.3751V7.0999C4.3751 7.0749 4.3501 7.0499 4.3251 7.0499C4.3001 7.0499 4.2751 7.0749 4.2751 7.0999V7.1999Z" fill="#3E4347"/>
<path d="M2.75 7.5H3.25L3.2 7.25V7H3.25V6.875H3.175V6.95H3.15V6.875H3.075V6.95H3.025V6.875H2.975V6.95H2.925V6.875H2.85V6.95H2.8V6.875H2.75V7H2.8V7.25L2.75 7.5Z" fill="#FFE62E"/>
<path d="M3.0751 7.4999H3.0501V7.3999C3.0501 7.3749 3.0251 7.3499 3.0001 7.3499C2.9751 7.3499 2.9501 7.3749 2.9501 7.3999V7.4999H2.9251V7.3999C2.9251 7.3499 2.9501 7.3249 3.0001 7.3249C3.0501 7.3249 3.0751 7.3499 3.0751 7.3999V7.4999ZM3.0001 7.2249H2.8501V7.0999C2.8501 7.0499 2.8751 7.0249 2.9251 7.0249C2.9751 7.0249 3.0001 7.0499 3.0001 7.0999V7.2249ZM2.8751 7.1999H2.9751V7.0999C2.9751 7.0749 2.9501 7.0499 2.9251 7.0499C2.9001 7.0499 2.8751 7.0749 2.8751 7.0999V7.1999Z" fill="#3E4347"/>
<path d="M3.15 7.2249H3V7.0999C3 7.0499 3.025 7.0249 3.075 7.0249C3.125 7.0249 3.15 7.0499 3.15 7.0999V7.2249ZM3.025 7.1999H3.125V7.0999C3.125 7.0749 3.1 7.0499 3.075 7.0499C3.05 7.0499 3.025 7.0749 3.025 7.0999V7.1999Z" fill="#3E4347"/>
<path d="M2.75 8.9751H3.25L3.2 8.7251V8.4751H3.25V8.3501H3.2V8.4251H3.15V8.3501H3.1V8.4251H3.025V8.3501H2.975V8.4251H2.925V8.3501H2.875V8.4251H2.825V8.3501H2.75V8.4751H2.825V8.7251L2.75 8.9751Z" fill="#FFE62E"/>
<path d="M3.0751 8.975H3.0501V8.875C3.0501 8.85 3.0251 8.825 3.0001 8.825C2.9751 8.825 2.9501 8.85 2.9501 8.875V8.975H2.9251V8.875C2.9251 8.825 2.9501 8.8 3.0001 8.8C3.0501 8.8 3.0751 8.825 3.0751 8.875V8.975ZM3.0001 8.7H2.8501V8.575C2.8501 8.525 2.8751 8.5 2.9251 8.5C2.9751 8.5 3.0001 8.525 3.0001 8.575V8.7ZM2.8751 8.675H2.9751V8.575C2.9751 8.55 2.9501 8.525 2.9251 8.525C2.9001 8.525 2.8751 8.55 2.8751 8.575V8.675ZM3.1751 8.7H3.0251V8.575C3.0251 8.525 3.0501 8.5 3.1001 8.5C3.1501 8.5 3.1751 8.525 3.1751 8.575V8.7ZM3.0501 8.675H3.1501V8.575C3.1501 8.55 3.1251 8.525 3.1001 8.525C3.0751 8.525 3.0501 8.55 3.0501 8.575V8.675Z" fill="#3E4347"/>
<path d="M5.25 8.9999H5.75L5.7 8.7499V8.4999H5.75V8.3999H5.675V8.4499H5.65V8.3999H5.575V8.4499H5.525V8.3999H5.475V8.4499H5.425V8.3999H5.35V8.4499H5.3V8.3999H5.25V8.4999H5.3V8.7499L5.25 8.9999Z" fill="#FFE62E"/>
<path d="M5.5751 8.9999H5.5501V8.8999C5.5501 8.8749 5.5251 8.8499 5.5001 8.8499C5.4751 8.8499 5.4501 8.8749 5.4501 8.8999V8.9999H5.4251V8.8999C5.4251 8.8499 5.4501 8.8249 5.5001 8.8249C5.5501 8.8249 5.5751 8.8499 5.5751 8.8999V8.9999ZM5.5001 8.7249H5.3501V8.5999C5.3501 8.5499 5.3751 8.5249 5.4251 8.5249C5.4751 8.5249 5.5001 8.5499 5.5001 8.5999V8.7249ZM5.3751 8.6999H5.4751V8.5999C5.4751 8.5749 5.4501 8.5499 5.4251 8.5499C5.4001 8.5499 5.3751 8.5749 5.3751 8.5999V8.6999ZM5.6501 8.7249H5.5001V8.5999C5.5001 8.5499 5.5251 8.5249 5.5751 8.5249C5.6251 8.5249 5.6501 8.5499 5.6501 8.5999V8.7249ZM5.5251 8.6999H5.6251V8.5999C5.6251 8.5749 5.6001 8.5499 5.5751 8.5499C5.5501 8.5499 5.5251 8.5749 5.5251 8.5999V8.6999Z" fill="#3E4347"/>
<path d="M5.25 7.5H5.75L5.7 7.25V7H5.75V6.875H5.675V6.95H5.65V6.875H5.575V6.95H5.525V6.875H5.475V6.95H5.425V6.875H5.35V6.95H5.3V6.875H5.25V7H5.3V7.25L5.25 7.5Z" fill="#FFE62E"/>
<path d="M5.5751 7.4999H5.5501V7.3999C5.5501 7.3749 5.5251 7.3499 5.5001 7.3499C5.4751 7.3499 5.4501 7.3749 5.4501 7.3999V7.4999H5.4251V7.3999C5.4251 7.3499 5.4501 7.3249 5.5001 7.3249C5.5501 7.3249 5.5751 7.3499 5.5751 7.3999V7.4999ZM5.5001 7.2249H5.3501V7.0999C5.3501 7.0499 5.3751 7.0249 5.4251 7.0249C5.4751 7.0249 5.5001 7.0499 5.5001 7.0999V7.2249ZM5.3751 7.1999H5.4751V7.0999C5.4751 7.0749 5.4501 7.0499 5.4251 7.0499C5.4001 7.0499 5.3751 7.0749 5.3751 7.0999V7.1999ZM5.6501 7.2249H5.5001V7.0999C5.5001 7.0499 5.5251 7.0249 5.5751 7.0249C5.6251 7.0249 5.6501 7.0499 5.6501 7.0999V7.2249ZM5.5251 7.1999H5.6251V7.0999C5.6251 7.0749 5.6001 7.0499 5.5751 7.0499C5.5501 7.0499 5.5251 7.0749 5.5251 7.0999V7.1999Z" fill="#3E4347"/>
<path d="M3.55 10.4001L3.9 10.0251L3.675 9.9001L3.5 9.7251L3.55 9.6751L3.475 9.6001L3.425 9.6501L3.475 9.7001L3.45 9.7251L3.4 9.6751L3.35 9.7251L3.4 9.7501L3.35 9.8001L3.325 9.7501L3.275 9.8001L3.325 9.8501L3.275 9.8751L3.25 9.8251L3.2 9.8751L3.225 9.9251L3.2 9.9501L3.175 9.9001L3.125 9.9501L3.2 10.0251H3.225L3.25 10.0001L3.425 10.1751L3.55 10.4001Z" fill="#FFE62E"/>
<path d="M3.7748 10.1499L3.6748 10.0999C3.6498 10.0749 3.6248 10.0749 3.5998 10.0999C3.5748 10.1249 3.5748 10.1499 3.5998 10.1749L3.6748 10.2499L3.6498 10.2749L3.5748 10.1999C3.5498 10.1749 3.5498 10.1249 3.5748 10.0999C3.5998 10.0749 3.6498 10.0749 3.6748 10.0999L3.7748 10.1499ZM3.5248 10.0249L3.4248 10.1249L3.3498 10.0499C3.3248 10.0249 3.3248 9.9749 3.3498 9.9499C3.3748 9.9249 3.4248 9.9249 3.4498 9.9499L3.5248 10.0249ZM3.4248 10.0999L3.4998 10.0249L3.4248 9.9499C3.3998 9.9249 3.3748 9.9249 3.3498 9.9499C3.3248 9.9749 3.3248 9.9999 3.3498 10.0249L3.4248 10.0999ZM3.6498 9.8999L3.5498 9.9999L3.4748 9.9249C3.4498 9.8999 3.4498 9.8499 3.4748 9.8249C3.4998 9.7999 3.5498 9.7999 3.5748 9.8249L3.6498 9.8999ZM3.5498 9.9749L3.6248 9.8999L3.5498 9.8249C3.5248 9.7999 3.4998 9.7999 3.4748 9.8249C3.4498 9.8499 3.4498 9.8749 3.4748 9.8999L3.5498 9.9749Z" fill="#3E4347"/>
<path d="M4.9501 10.4001L4.6001 10.0251L4.8001 9.9001L4.9751 9.7251L4.9501 9.6751L5.0251 9.6001L5.0751 9.6501L5.0251 9.7001L5.0501 9.7251L5.1001 9.6751L5.1501 9.7251L5.1001 9.7501L5.1501 9.8001L5.1751 9.7501L5.2251 9.8001L5.1751 9.8501L5.2251 9.8751L5.2501 9.8251L5.3001 9.8751L5.2501 9.9251L5.3001 9.9501L5.3251 9.9001L5.3751 9.9501L5.3001 10.0251H5.2751L5.2501 10.0001L5.0751 10.1751L4.9501 10.4001Z" fill="#FFE62E"/>
<path d="M4.7251 10.1499L4.8251 10.0999C4.8501 10.0749 4.8751 10.0749 4.9001 10.0999C4.9251 10.1249 4.9251 10.1499 4.9001 10.1749L4.8001 10.2499L4.8251 10.2749L4.9001 10.1999C4.9251 10.1749 4.9251 10.1249 4.9001 10.0999C4.8751 10.0749 4.8251 10.0749 4.8001 10.0999L4.7251 10.1499ZM5.0501 9.9499C5.0751 9.9249 5.1251 9.9249 5.1501 9.9499C5.1751 9.9749 5.1751 10.0249 5.1501 10.0499L5.0751 10.1249L4.9751 10.0249L5.0501 9.9499ZM5.1251 10.0249C5.1501 9.9999 5.1501 9.9749 5.1251 9.9499C5.1001 9.9249 5.0751 9.9249 5.0501 9.9499L5.0001 10.0249L5.0751 10.0999L5.1251 10.0249ZM4.9251 9.8249C4.9501 9.7999 5.0001 9.7999 5.0251 9.8249C5.0501 9.8499 5.0501 9.8999 5.0251 9.9249L4.9501 9.9999L4.8501 9.8999L4.9251 9.8249ZM5.0251 9.8999C5.0501 9.8749 5.0501 9.8499 5.0251 9.8249C5.0001 9.7999 4.9751 9.7999 4.9501 9.8249L4.8751 9.8999L4.9501 9.9749L5.0251 9.8999Z" fill="#3E4347"/>
</svg>
