<svg width="16" height="17" viewBox="0 0 16 17" fill="none" xmlns="http://www.w3.org/2000/svg">
<path d="M0.5 8.5C0.5 9.975 0.925 11.35 1.65 12.5H14.325C15.05 11.35 15.475 9.975 15.475 8.5C15.475 7.025 15.05 5.65 14.325 4.5H1.65C0.925 5.65 0.5 7.025 0.5 8.5Z" fill="#FFCE31"/>
<path d="M14.3499 4.5C13.0249 2.4 10.6749 1 7.9999 1C5.3249 1 2.9749 2.4 1.6499 4.5H14.3499ZM1.6499 12.5C2.9749 14.6 5.3249 16 7.9999 16C10.6749 16 13.0249 14.6 14.3499 12.5H1.6499Z" fill="#ED4C5C"/>
<path d="M2.2998 7.6748H3.0998V8.1248H2.2998V7.6748ZM2.2998 10.9748H3.1248V11.3998H2.2998V10.9748Z" fill="#C8B100"/>
<path d="M2.2251 10.2749C2.1501 10.3249 2.1001 10.3749 2.1001 10.3999C2.1001 10.4249 2.1251 10.4499 2.1751 10.4749C2.2251 10.4999 2.2751 10.5499 2.2501 10.5999C2.3001 10.5499 2.3251 10.4999 2.3251 10.4499C2.3251 10.3749 2.2751 10.2999 2.2251 10.2749Z" fill="#ED4C5C"/>
<path d="M2.4248 8.125H2.9998V10.975H2.4248V8.125Z" fill="white"/>
<path d="M3.59999 9.175C3.47499 9.125 3.24999 9.075 2.99999 9.075C2.92499 9.075 2.82499 9.075 2.72499 9.1C2.37499 9.15 2.09999 9.3 2.12499 9.4L1.99999 9.125C1.97499 9 2.27499 8.85 2.64999 8.775C2.77499 8.75 2.89999 8.75 2.99999 8.75C3.24999 8.75 3.47499 8.775 3.59999 8.825V9.175Z" fill="#ED4C5C"/>
<path d="M2.4249 9.55C2.2749 9.55 2.1499 9.5 2.1499 9.425C2.1499 9.375 2.1999 9.3 2.2999 9.25H2.4499L2.4249 9.55ZM2.9999 9.325C3.0999 9.35 3.1749 9.375 3.2249 9.4C3.2499 9.425 3.1499 9.525 2.9999 9.6V9.325Z" fill="#ED4C5C"/>
<path d="M2.05023 10.0999C2.02523 10.0499 2.20023 9.9499 2.42523 9.8749C2.52523 9.8499 2.60023 9.7999 2.72523 9.7499C3.02523 9.6249 3.27523 9.4499 3.22523 9.3999L3.27523 9.6999C3.30023 9.7499 3.10023 9.8999 2.80023 10.0499C2.70023 10.0999 2.52523 10.1749 2.42523 10.1999C2.25023 10.2499 2.10023 10.3499 2.10023 10.3749L2.05023 10.0999Z" fill="#ED4C5C"/>
<path d="M7.6749 7.6748H8.4749V8.1248H7.6749V7.6748ZM7.6499 10.9748H8.4749V11.3998H7.6499V10.9748Z" fill="#C8B100"/>
<path d="M8.5502 10.2749C8.6252 10.3249 8.6752 10.3749 8.6752 10.3999C8.6752 10.4249 8.6502 10.4499 8.6002 10.4749C8.5502 10.5249 8.5002 10.5999 8.5252 10.6249C8.4752 10.5749 8.4502 10.5249 8.4502 10.4749C8.4502 10.3749 8.5002 10.2999 8.5502 10.2749Z" fill="#ED4C5C"/>
<path d="M7.7749 8.125H8.3499V10.975H7.7749V8.125Z" fill="white"/>
<path d="M7.17529 9.175C7.30029 9.125 7.52529 9.075 7.77529 9.075C7.85029 9.075 7.95029 9.075 8.05029 9.1C8.40029 9.15 8.67529 9.3 8.65029 9.4L8.77529 9.1C8.80029 8.975 8.50029 8.825 8.12529 8.75H7.77529C7.52529 8.75 7.30029 8.775 7.17529 8.825V9.175Z" fill="#ED4C5C"/>
<path d="M8.35022 9.55C8.50022 9.55 8.62522 9.5 8.62522 9.425C8.62522 9.375 8.57522 9.3 8.47522 9.25H8.32521L8.35022 9.55ZM7.77522 9.325C7.67522 9.35 7.60022 9.375 7.55022 9.4C7.52522 9.425 7.62522 9.525 7.77522 9.6V9.325Z" fill="#ED4C5C"/>
<path d="M8.7252 10.1002C8.7502 10.0502 8.5752 9.9502 8.3502 9.8752C8.2502 9.8502 8.1752 9.8002 8.0502 9.7502C7.7502 9.6252 7.5002 9.4502 7.5502 9.4002L7.5002 9.7002C7.4752 9.7502 7.67519 9.9002 7.97519 10.0502C8.07519 10.1002 8.2502 10.1752 8.3502 10.2002C8.5252 10.2502 8.6752 10.3752 8.6502 10.4002L8.7252 10.1002ZM5.3752 6.0752C5.8502 6.0752 6.8252 6.1752 7.1752 6.5252C6.8002 7.4252 6.2002 7.0502 5.3752 7.0502C4.5752 7.0502 3.9502 7.4252 3.5752 6.5252C3.9252 6.1752 4.8752 6.0752 5.3752 6.0752Z" fill="#ED4C5C"/>
<path d="M6.6002 7.075C6.3002 6.9 5.8502 6.875 5.3752 6.875C4.9002 6.875 4.4502 6.925 4.1502 7.075L4.2502 7.5C4.5252 7.575 4.9252 7.625 5.3752 7.625C5.8252 7.625 6.2002 7.575 6.5002 7.5L6.6002 7.075ZM7.0252 6C6.9252 5.925 6.7252 5.85 6.5502 5.85C6.4752 5.85 6.4002 5.85 6.3252 5.875C6.3252 5.875 6.1752 5.675 5.8252 5.675C5.7002 5.675 5.6002 5.7 5.5002 5.75V5.725C5.4752 5.675 5.4252 5.625 5.3752 5.625C5.3252 5.625 5.2502 5.7 5.2502 5.75V5.775C5.1502 5.725 5.0502 5.7 4.9252 5.7C4.5752 5.7 4.4252 5.925 4.4252 5.9C4.3502 5.875 4.2752 5.875 4.2002 5.875C3.0502 5.875 3.6252 6.65 3.6252 6.65L3.7502 6.5C3.4752 6.15 3.7252 5.95 4.2252 5.95C4.3002 5.95 4.3502 5.95 4.4002 5.975C4.2252 6.225 4.5502 6.45 4.5502 6.45L4.6252 6.325C4.4502 6.2 4.4252 5.775 4.9252 5.775C5.0502 5.775 5.1502 5.8 5.2502 5.875C5.2502 5.9 5.2252 6.25 5.2002 6.3L5.4002 6.475L5.6002 6.3C5.5752 6.225 5.5502 5.9 5.5502 5.875C5.6252 5.825 5.7502 5.775 5.8752 5.775C6.4002 5.775 6.4002 6.2 6.1752 6.325L6.2502 6.45C6.2502 6.45 6.5252 6.225 6.4002 5.975C6.4502 5.975 6.5252 5.95 6.5752 5.95C7.1752 5.95 7.2002 6.4 7.0502 6.5L7.1502 6.65C7.1002 6.65 7.3752 6.3 7.0252 6Z" fill="#C8B100"/>
<path d="M5.2251 5.525C5.2251 5.45 5.3001 5.375 5.3751 5.375C5.4751 5.375 5.5251 5.45 5.5251 5.525C5.5251 5.6 5.4501 5.675 5.3751 5.675C5.3001 5.675 5.2251 5.6 5.2251 5.525Z" fill="#005BBF"/>
<path d="M5.3251 5.1001V5.1751H5.2501V5.2501H5.3251V5.5001H5.2251V5.5751H5.5251L5.5501 5.5251L5.5251 5.5001H5.4251V5.2501H5.5001V5.1751H5.4251V5.1001H5.3251Z" fill="#C8B100"/>
<path d="M5.3751 7.5752C4.9751 7.5752 4.6251 7.5252 4.3501 7.4502C4.6251 7.3752 4.9751 7.3252 5.3751 7.3252C5.7751 7.3252 6.1251 7.3752 6.4001 7.4502C6.1501 7.5252 5.7751 7.5752 5.3751 7.5752Z" fill="#ED4C5C"/>
<path d="M5.4001 11.8999C4.9251 11.8999 4.4751 11.7749 4.0751 11.5999C3.7751 11.4499 3.6001 11.1749 3.6001 10.8499V9.6499H7.2001V10.8499C7.2001 11.1749 7.0001 11.4749 6.7251 11.5999C6.3251 11.7999 5.8751 11.8999 5.4001 11.8999ZM5.3751 7.6499H7.1751V9.6499H5.3751V7.6499Z" fill="white"/>
<path d="M5.4001 10.8499C5.4001 11.3249 5.0001 11.6999 4.5001 11.6999C4.0001 11.6999 3.6001 11.3249 3.6001 10.8499V9.6499H5.4001V10.8499Z" fill="#ED4C5C"/>
<path d="M3.9752 11.5501C4.0252 11.5751 4.1002 11.6251 4.2002 11.6501V9.6001H4.0002L3.9752 11.5501ZM3.5752 10.8251C3.5752 11.0751 3.6752 11.2751 3.7752 11.3751V9.6001H3.5752V10.8251Z" fill="#C8B100"/>
<path d="M4.375 11.7001H4.575V9.6001H4.375V11.7001Z" fill="#C7B500"/>
<path d="M4.7749 11.6501C4.8499 11.6251 4.9499 11.5751 4.9999 11.5501V9.6001H4.7999L4.7749 11.6501Z" fill="#C8B100"/>
<path d="M3.5752 7.6499H5.3752V9.6499H3.5752V7.6499Z" fill="#ED4C5C"/>
<path d="M5.2002 11.375C5.3002 11.3 5.3752 11.125 5.4002 10.925V9.625H5.2002V11.375Z" fill="#C8B100"/>
<path d="M7.2001 9.65022V10.8502C7.2001 11.3252 6.8001 11.7002 6.3001 11.7002C5.8001 11.7002 5.4001 11.3252 5.4001 10.8502V9.65022H7.2001ZM6.5501 8.00022C6.6251 8.15022 6.6251 8.52522 6.4001 8.45022C6.4501 8.47522 6.4751 8.65022 6.5501 8.75022C6.6751 8.90022 6.8251 8.77522 6.8001 8.60022C6.7501 8.32522 6.7751 8.15022 6.8251 7.87522C6.8251 7.90022 6.9501 7.90022 7.0001 7.85022C6.9751 7.92522 6.9501 8.02522 7.0001 8.02522C6.9501 8.10022 6.8251 8.22522 6.8001 8.30022C6.7751 8.47522 7.0501 8.80022 6.7501 8.87522C6.5501 8.92522 6.6751 9.07522 6.7501 9.15022C6.7501 9.15022 6.6501 9.47522 6.7001 9.45022C6.5001 9.52522 6.5501 9.35022 6.5501 9.35022C6.6501 9.05022 6.3751 9.02522 6.4001 8.97522C6.1501 8.95022 6.4251 9.20022 6.2001 9.20022C6.1501 9.20022 6.0501 9.25022 6.0501 9.25022C5.7751 9.22522 5.9251 8.97522 6.0251 9.00022C6.1001 9.02522 6.1751 9.15022 6.1751 8.97522C6.1751 8.97522 6.0501 8.77522 6.3751 8.77522C6.2501 8.77522 6.1751 8.67522 6.1251 8.55022C6.0751 8.57522 6.0001 8.70022 5.7251 8.72522C5.7251 8.72522 5.6501 8.45022 5.7251 8.50022C5.8251 8.55022 5.8751 8.55022 5.9751 8.45022C5.9251 8.37522 5.6251 8.27522 5.6751 8.10022C5.6751 8.05022 5.8251 7.97522 5.8251 7.97522C5.8001 8.10022 5.8751 8.22522 6.0251 8.22522C6.2251 8.25022 6.1501 8.17522 6.1751 8.12522C6.2001 8.07522 6.3501 8.15022 6.3001 8.02522C6.3001 8.00022 6.1251 7.97522 6.1751 7.90022C6.2751 7.77522 6.4251 7.87522 6.5501 8.00022ZM5.4001 11.6502L5.3501 11.5252L5.4001 11.3752L5.4501 11.5252L5.4001 11.6502Z" fill="#ED4C5C"/>
<path d="M4.1251 8.075V8.2H4.1751V8.3H4.0501V8.55H4.1251V9.1H3.9751V9.375H5.0001V9.1H4.8751V8.55H4.9251V8.3H4.8001V8.2H4.8751V8.075H4.6251V8.2H4.6751V8.3H4.5501V8H4.6251V7.875H4.3501V8H4.4251V8.3H4.3001V8.2H4.3501V8.075H4.1251ZM6.9501 11.15V9.9H5.6501V11.15L6.2501 11.425H6.3251L6.9501 11.15ZM6.2501 10V10.425L5.8251 10H6.2501ZM5.7251 10.025L6.2251 10.525L5.7251 11.025V10.025ZM5.7751 11.125L6.2501 10.65V11.35L5.7751 11.125ZM6.3251 11.325V10.625L6.8001 11.1L6.3251 11.325ZM6.8501 11.025L6.3501 10.525L6.8501 10.025V11.025ZM6.3251 10H6.7501L6.3251 10.425V10Z" fill="#C8B100"/>
<path d="M4.7998 9.6251C4.7998 9.2501 5.0498 8.9751 5.3748 8.9751C5.6998 8.9751 5.9498 9.2751 5.9498 9.6251C5.9498 9.9751 5.6998 10.2751 5.3748 10.2751C5.0498 10.2751 4.7998 10.0001 4.7998 9.6251Z" fill="#ED4C5C"/>
<path d="M4.9751 9.6249C4.9751 9.3499 5.1501 9.1499 5.3751 9.1499C5.6001 9.1499 5.7751 9.3749 5.7751 9.6249C5.7751 9.8999 5.6001 10.0999 5.3751 10.0999C5.1751 10.1249 4.9751 9.8999 4.9751 9.6249Z" fill="#005BBF"/>
<path d="M5.2001 9.2998L5.1001 9.5748L5.1751 9.5998L5.1251 9.6998H5.2751L5.2251 9.5998L5.3001 9.5748L5.2001 9.2998ZM5.5751 9.2998L5.4751 9.5748L5.5501 9.5998L5.5001 9.6998H5.6501L5.6251 9.5998L5.7001 9.5748L5.5751 9.2998ZM5.4001 9.6248L5.2751 9.8998L5.3501 9.9248L5.3251 10.0248H5.4501L5.4251 9.9248L5.5001 9.8998L5.4001 9.6248Z" fill="#C8B100"/>
</svg>
