<svg width="16" height="17" viewBox="0 0 16 17" fill="none" xmlns="http://www.w3.org/2000/svg">
<path d="M12 2.15C10.825 1.425 9.475 1 8 1V2.15H12Z" fill="#ED4C5C"/>
<path d="M8 3.2999H13.4C12.975 2.8749 12.5 2.4749 12 2.1499H8V3.2999Z" fill="white"/>
<path d="M8 4.4498H14.325C14.05 4.0248 13.75 3.6498 13.425 3.2998H8V4.4498Z" fill="#ED4C5C"/>
<path d="M8 5.6002H14.925C14.75 5.2002 14.55 4.8002 14.325 4.4502H8V5.6002Z" fill="white"/>
<path d="M8 6.7501H15.3C15.2 6.3501 15.075 5.9751 14.925 5.6001H8V6.7501Z" fill="#ED4C5C"/>
<path d="M8 7.9249H15.475C15.45 7.5249 15.375 7.1499 15.3 6.7749H8V7.9249Z" fill="white"/>
<path d="M15.475 7.9248H8V8.4998H0.5C0.5 8.6998 0.5 8.8748 0.525 9.0748H15.475C15.5 8.8748 15.5 8.6998 15.5 8.4998C15.5 8.2998 15.5 8.0998 15.475 7.9248Z" fill="#ED4C5C"/>
<path d="M0.699902 10.2252H15.2999C15.3999 9.8502 15.4499 9.4752 15.4749 9.0752H0.524902C0.549902 9.4502 0.624902 9.8502 0.699902 10.2252Z" fill="white"/>
<path d="M1.0752 11.3751H14.9252C15.0752 11.0001 15.2002 10.6251 15.3002 10.2251H0.700195C0.800195 10.6251 0.925195 11.0001 1.0752 11.3751Z" fill="#ED4C5C"/>
<path d="M1.6752 12.525H14.3252C14.5502 12.15 14.7502 11.775 14.9252 11.375H1.0752C1.2502 11.775 1.4502 12.15 1.6752 12.525Z" fill="white"/>
<path d="M2.5748 13.6749H13.4248C13.7498 13.3249 14.0748 12.9249 14.3248 12.5249H1.6748C1.9248 12.9499 2.2498 13.3249 2.5748 13.6749Z" fill="#ED4C5C"/>
<path d="M3.9752 14.8248H12.0252C12.5502 14.4998 13.0002 14.0998 13.4252 13.6748H2.5752C3.0002 14.1248 3.4752 14.4998 3.9752 14.8248Z" fill="white"/>
<path d="M8.0001 16.0002C9.4751 16.0002 10.8501 15.5752 12.0251 14.8252H3.9751C5.1501 15.5752 6.5251 16.0002 8.0001 16.0002Z" fill="#ED4C5C"/>
<path d="M4 2.15C3.475 2.475 3 2.875 2.575 3.3C2.225 3.65 1.925 4.05 1.675 4.45C1.45 4.825 1.225 5.2 1.075 5.6C0.925 5.975 0.8 6.35 0.7 6.75C0.6 7.125 0.55 7.5 0.525 7.9C0.5 8.1 0.5 8.3 0.5 8.5H8V1C6.525 1 5.175 1.425 4 2.15Z" fill="#428BC1"/>
<path d="M6.2501 1.25L6.3751 1.625H6.7501L6.4501 1.875L6.5501 2.25L6.2501 2.025L5.9501 2.25L6.0501 1.875L5.7501 1.625H6.1251L6.2501 1.25ZM7.2501 2.75L7.3751 3.125H7.7501L7.4501 3.375L7.5501 3.75L7.2501 3.525L6.9501 3.75L7.0501 3.375L6.7501 3.125H7.1251L7.2501 2.75ZM5.2501 2.75L5.3751 3.125H5.7501L5.4501 3.375L5.5501 3.75L5.2501 3.525L4.9501 3.75L5.0501 3.375L4.7501 3.125H5.1251L5.2501 2.75ZM6.2501 4.25L6.3751 4.625H6.7501L6.4501 4.875L6.5501 5.25L6.2501 5.025L5.9501 5.25L6.0501 4.875L5.7501 4.625H6.1251L6.2501 4.25ZM4.2501 4.25L4.3751 4.625H4.7501L4.4501 4.875L4.5501 5.25L4.2501 5.025L3.9501 5.25L4.0501 4.875L3.7501 4.625H4.1251L4.2501 4.25ZM2.2501 4.25L2.3751 4.625H2.7501L2.4501 4.875L2.5501 5.25L2.2501 5.025L1.9501 5.25L2.0501 4.875L1.7501 4.625H2.1251L2.2501 4.25ZM7.2501 5.75L7.3751 6.125H7.7501L7.4501 6.375L7.5501 6.75L7.2501 6.525L6.9501 6.75L7.0501 6.375L6.7501 6.125H7.1251L7.2501 5.75ZM5.2501 5.75L5.3751 6.125H5.7501L5.4501 6.375L5.5501 6.75L5.2501 6.525L4.9501 6.75L5.0501 6.375L4.7501 6.125H5.1251L5.2501 5.75ZM3.2501 5.75L3.3751 6.125H3.7501L3.4501 6.375L3.5501 6.75L3.2501 6.525L2.9501 6.75L3.0501 6.375L2.7501 6.125H3.1251L3.2501 5.75ZM6.2501 7.25L6.3751 7.625H6.7501L6.4501 7.875L6.5501 8.25L6.2501 8.025L5.9501 8.25L6.0501 7.875L5.7501 7.625H6.1251L6.2501 7.25ZM4.2501 7.25L4.3751 7.625H4.7501L4.4501 7.875L4.5501 8.25L4.2501 8.025L3.9501 8.25L4.0501 7.875L3.7501 7.625H4.1251L4.2501 7.25ZM2.2501 7.25L2.3751 7.625H2.7501L2.4501 7.875L2.5501 8.25L2.2501 8.025L1.9501 8.25L2.0501 7.875L1.7501 7.625H2.1251L2.2501 7.25ZM2.9501 3.75L3.2501 3.525L3.5501 3.75L3.4251 3.375L3.7251 3.125H3.3501L3.2501 2.75L3.1251 3.125H2.7751L3.0751 3.35L2.9501 3.75ZM0.950098 6.75L1.2501 6.525L1.5501 6.75L1.4251 6.375L1.7251 6.125H1.3751L1.2501 5.75L1.1251 6.125H0.875098C0.875098 6.15 0.850098 6.175 0.850098 6.2L1.0501 6.35L0.950098 6.75Z" fill="white"/>
</svg>
